<svg width="18" height="18" viewBox="0 0 18 18" fill="none" xmlns="http://www.w3.org/2000/svg">
<g clip-path="url(#clip0_1_3799)">
<path d="M17.8681 16.8377L11.47 7.62034L17.7832 1.25323C18.08 0.946422 18.053 0.477708 17.7212 0.201877C17.3904 -0.0749542 16.8777 -0.0549664 16.5729 0.24585L10.5586 6.30914L6.4201 0.347787C6.27019 0.13092 6.01035 0 5.73052 0H0.824521C0.525703 0 0.250871 0.148909 0.106959 0.388762C-0.0369528 0.628616 -0.0259595 0.921437 0.133943 1.1523L6.53303 10.3687L0.218891 16.7398C0.019013 16.9376 -0.0509442 17.2185 0.0380014 17.4763C0.126947 17.7342 0.358805 17.928 0.647629 17.984C0.935453 18.04 1.23427 17.95 1.42915 17.7482L7.44348 11.6849L11.5819 17.6462C11.7329 17.8611 11.9927 17.99 12.2715 17.989H17.1775C17.4763 17.989 17.7512 17.8401 17.8941 17.6002C18.038 17.3604 18.028 17.0686 17.8681 16.8377ZM12.7203 16.4899L2.31361 1.49908H5.2778L15.6884 16.4899H12.7203Z" fill="currentcolor"></path>
</g>
<defs>
<clipPath id="clip0_1_3799">
<rect width="17.995" height="18" fill="currentcolor"></rect>
</clipPath>
</defs>
</svg>